<svg id="Avatar" height="512" viewBox="0 0 64 64" width="512" xmlns="http://www.w3.org/2000/svg"><path d="m20 45h24a8 8 0 0 1 8 8v8a0 0 0 0 1 0 0h-40a0 0 0 0 1 0 0v-8a8 8 0 0 1 8-8z" fill="#e9656c"/><path d="m32 50a5.658 5.658 0 0 1 -5.648-5.99l.648-11.01h10l.648 11.01a5.658 5.658 0 0 1 -5.648 5.99z" fill="#ffcbbe"/><path d="m32 42a13 13 0 0 1 -13-13v-12c0-12.513 5.82-10 13-10 7.18 0 13 2.82 13 10v12a13 13 0 0 1 -13 13z" fill="#ffddce"/><path d="m29 5h-8a4 4 0 0 0 -4 4v12h2.5l1.39-2.79a4.02 4.02 0 0 1 3.58-2.21h6.53a6 6 0 0 0 6-6 5 5 0 0 0 4.031 4.906 2.046 2.046 0 0 1 1.459 1.074l2.51 5.02h2v-14a4 4 0 0 0 -4-4h-10c-2.209 0-4-.209-4 2z" fill="#3e3d42"/><path d="m17 19h2a0 0 0 0 1 0 0v7a0 0 0 0 1 0 0h-2a2 2 0 0 1 -2-2v-3a2 2 0 0 1 2-2z" fill="#ffcbbe"/><path d="m47 19h2a0 0 0 0 1 0 0v7a0 0 0 0 1 0 0h-2a2 2 0 0 1 -2-2v-3a2 2 0 0 1 2-2z" fill="#ffcbbe" transform="matrix(-1 0 0 -1 94 45)"/><path d="m35.59 28.38 9.09 3.5a13.006 13.006 0 0 1 -25.36 0l9.09-3.5a9.988 9.988 0 0 1 7.18 0z" fill="#b4e6ee"/><path d="m44 44h-5.35v-.05l-.15-2.56a14.023 14.023 0 0 0 7.5-12.39v-2h1a3.009 3.009 0 0 0 3-3v-3a3.01 3.01 0 0 0 -2-2.82v-11.18a5 5 0 0 0 -5-5h-10.52c-1.45-.01-2.82-.03-3.71.86a2.479 2.479 0 0 0 -.65 1.14h-7.12a5 5 0 0 0 -5 5v9.18a3.01 3.01 0 0 0 -2 2.82v3a3.009 3.009 0 0 0 3 3h1v2a14.012 14.012 0 0 0 7.5 12.39l-.15 2.56v.05h-5.35a9.014 9.014 0 0 0 -9 9v8a1 1 0 0 0 1 1h40a1 1 0 0 0 1-1v-8a9.014 9.014 0 0 0 -9-9zm3-24a1 1 0 0 1 1 1v3a1 1 0 0 1 -1 1h-1v-5zm-29 5h-1a1 1 0 0 1 -1-1v-3a1 1 0 0 1 1-1h1zm1.88-7h-1.88v-9a3.009 3.009 0 0 1 3-3h8a1 1 0 0 0 1-1 1.093 1.093 0 0 1 .18-.72c.29-.3 1.36-.29 2.28-.28h10.54a3.009 3.009 0 0 1 3 3v11h-1.38l-1.24-2.47a3.008 3.008 0 0 0 -2.15-1.6 4.033 4.033 0 0 1 -2.32-1.39 3.972 3.972 0 0 1 -.91-2.54 1 1 0 0 0 -2 0 5 5 0 0 1 -5 5h-6.53a5.055 5.055 0 0 0 -4.48 2.77zm.12 11v-9h.5a1.012 1.012 0 0 0 .9-.56l.38-.78a3.044 3.044 0 0 1 2.69-1.66h6.53a7 7 0 0 0 6.09-3.55c.09.13.18.25.28.37a6.071 6.071 0 0 0 3.47 2.07 1.062 1.062 0 0 1 .76.54l2.4 4.81v7.76a12.321 12.321 0 0 1 -.1 1.5l-7.95-3.05a10.981 10.981 0 0 0 -7.9 0l-7.95 3.05a12.321 12.321 0 0 1 -.1-1.5zm.52 3.49 8.25-3.18a8.994 8.994 0 0 1 6.46 0l8.25 3.18a12 12 0 0 1 -22.96 0zm16.13 11.58a4.658 4.658 0 1 1 -9.3 0l.11-1.84a13.769 13.769 0 0 0 9.08 0zm14.35 15.93h-38v-7a7.008 7.008 0 0 1 7-7h5.55a6.662 6.662 0 0 0 12.9 0h5.55a7.008 7.008 0 0 1 7 7z"/><path d="m27 21a1 1 0 0 0 -1 1v2a1 1 0 0 0 2 0v-2a1 1 0 0 0 -1-1z"/><path d="m37 25a1 1 0 0 0 1-1v-2a1 1 0 0 0 -2 0v2a1 1 0 0 0 1 1z"/></svg>